# xmcd
#
# Track frame offsets:
#	150
#	12831
#	24943
#	37393
#	47676
#	61016
#	74039
#	86726
#	99249
#	114402
#	126541
#	136589
#
# Disc length: 1972 seconds
#
# Revision: 1
# Processed by: cddbd v1.5.2PL0 Copyright (c) Steve Scherf et al.
# Submitted via: audiograbber 1.83.01
#
DISCID=9f07b20c
DTITLE=Bill Anderson - Still
DYEAR=1900
DGENRE=
TTITLE0=Still
TTITLE1=Little Band Of Gold
TTITLE2=Down Came The Rain
TTITLE3=From A Jack To A King
TTITLE4=Molly
TTITLE5=Get A Little Dirt On Your Hands
TTITLE6=Restless
TTITLE7=It's Been So Long Darling
TTITLE8=The Reverend Mr. Black
TTITLE9=Take These Chains From My Heart
TTITLE10=Happiness
TTITLE11=I Wish It Was Mine
EXTD=
EXTT0=
EXTT1=
EXTT2=
EXTT3=
EXTT4=
EXTT5=
EXTT6=
EXTT7=
EXTT8=
EXTT9=
EXTT10=
EXTT11=
PLAYORDER=
